<?xml version="1.0" encoding="utf-8"?>
<!-- Generator: Adobe Illustrator 16.0.5, SVG Export Plug-In . SVG Version: 6.00 Build 0)  -->
<!DOCTYPE svg PUBLIC "-//W3C//DTD SVG 1.1//EN" "http://www.w3.org/Graphics/SVG/1.1/DTD/svg11.dtd">
<svg version="1.1" id="Layer_1" xmlns="http://www.w3.org/2000/svg" xmlns:xlink="http://www.w3.org/1999/xlink" x="0px" y="0px"
	 width="201px" height="205px" viewBox="-60 -65 201 205" enable-background="new -60 -65 201 205" xml:space="preserve">
<polygon fill="#EFEFF0" points="128.152,-51.206 -50.438,-51.206 -50.438,102.17 50.314,102.17 67.824,127.394 85.343,102.17 
	128.152,102.17 "/>
<path fill="#29B9A3" d="M105.005,25.141c0,1.058-0.855,1.911-1.905,1.911H-23.536c-1.044,0-1.898-0.853-1.898-1.911l0,0
	c0-1.049,0.854-1.904,1.898-1.904H103.1C104.149,23.234,105.005,24.092,105.005,25.141L105.005,25.141z"/>
<g>
	<path fill="#7F60A7" d="M67.534,137.046c-3.35,0-6.341-2.1-8.015-5.623L48.525,108.29h-91.29c-7.325,0-13.281-5.962-13.281-13.283
		V-44.366c0-7.325,5.957-13.281,13.281-13.281h164.866c7.318,0,13.275,5.957,13.275,13.281v139.37c0,7.324-5.957,13.28-13.275,13.28
		H86.55L75.558,131.41C73.878,134.946,70.879,137.046,67.534,137.046z M-42.764-45.091c-0.398,0-0.721,0.326-0.721,0.726v139.37
		c0,0.399,0.323,0.727,0.721,0.727h99.231l11.067,23.302L78.603,95.73h43.499c0.396,0,0.721-0.327,0.721-0.727v-139.37
		c0-0.4-0.325-0.726-0.721-0.726H-42.764z"/>
</g>
<g>
	<path fill="#7F60A7" d="M-5.746,64.864l-3.74-13.898l-3.8,13.888c-0.3,1.057-0.532,1.811-0.704,2.265
		c-0.174,0.463-0.483,0.877-0.913,1.238c-0.436,0.365-1.012,0.549-1.729,0.545c-0.572,0-1.05-0.112-1.428-0.327
		c-0.376-0.214-0.678-0.516-0.913-0.915c-0.229-0.397-0.42-0.866-0.563-1.409c-0.149-0.541-0.276-1.046-0.397-1.509l-3.846-15.609
		c-0.228-0.91-0.35-1.595-0.35-2.066c0-0.598,0.221-1.11,0.641-1.517c0.425-0.413,0.938-0.616,1.562-0.616
		c0.855,0,1.428,0.27,1.731,0.819c0.292,0.55,0.55,1.342,0.771,2.388l3.029,13.537l3.401-12.661c0.258-0.968,0.482-1.706,0.68-2.218
		c0.201-0.507,0.535-0.938,0.985-1.311c0.448-0.371,1.071-0.547,1.851-0.547c0.788,0,1.4,0.192,1.84,0.577
		c0.435,0.382,0.737,0.807,0.903,1.257c0.171,0.456,0.396,1.2,0.685,2.241l3.415,12.669L0.408,48.16
		c0.147-0.71,0.29-1.263,0.423-1.665c0.132-0.396,0.365-0.754,0.682-1.074c0.321-0.315,0.788-0.479,1.397-0.468
		c0.607,0,1.134,0.201,1.554,0.601c0.428,0.412,0.642,0.919,0.642,1.529c0,0.438-0.116,1.12-0.353,2.072L0.891,64.757
		c-0.261,1.052-0.485,1.822-0.662,2.316c-0.171,0.488-0.464,0.922-0.884,1.283c-0.411,0.374-1,0.555-1.77,0.555
		c-0.708,0-1.285-0.181-1.718-0.54c-0.432-0.361-0.726-0.759-0.898-1.206C-5.21,66.717-5.443,65.948-5.746,64.864z"/>
	<path fill="#7F60A7" d="M20.435,44.96c2.4,0.004,4.462,0.492,6.184,1.472c1.73,0.975,3.027,2.354,3.912,4.16
		c0.883,1.794,1.324,3.901,1.324,6.329c0,1.787-0.242,3.422-0.732,4.883c-0.482,1.464-1.213,2.733-2.18,3.809
		c-0.963,1.071-2.16,1.898-3.575,2.461c-1.41,0.568-3.029,0.855-4.85,0.855c-1.811,0-3.435-0.293-4.868-0.879
		c-1.43-0.585-2.633-1.413-3.589-2.474c-0.96-1.069-1.682-2.352-2.167-3.849c-0.492-1.496-0.736-3.118-0.736-4.852
		c0-1.787,0.261-3.422,0.769-4.908c0.512-1.481,1.249-2.749,2.226-3.788c0.967-1.038,2.151-1.84,3.541-2.392
		C17.085,45.238,18.66,44.96,20.435,44.96z M27.101,56.889c0-1.693-0.274-3.166-0.822-4.412c-0.547-1.249-1.326-2.183-2.348-2.825
		c-1.011-0.642-2.181-0.957-3.495-0.957c-0.933,0-1.808,0.174-2.602,0.53c-0.797,0.351-1.483,0.864-2.059,1.536
		c-0.582,0.676-1.028,1.538-1.361,2.582c-0.333,1.052-0.498,2.23-0.5,3.536c0,1.315,0.167,2.504,0.493,3.572
		c0.333,1.067,0.803,1.951,1.41,2.646c0.602,0.703,1.296,1.232,2.083,1.581c0.785,0.347,1.642,0.522,2.583,0.522
		c1.196,0,2.306-0.304,3.316-0.904c1.002-0.596,1.805-1.522,2.397-2.782C26.795,60.264,27.101,58.724,27.101,56.889z"/>
	<path fill="#7F60A7" d="M43.796,58.641h-1.644l-0.007,7.44c0,0.982-0.224,1.699-0.652,2.168c-0.439,0.466-0.993,0.694-1.692,0.694
		c-0.752,0-1.329-0.241-1.741-0.725c-0.403-0.492-0.607-1.202-0.607-2.138l0.01-17.83c0-1.016,0.222-1.745,0.686-2.193
		c0.448-0.456,1.179-0.682,2.197-0.68h7.635c1.048,0,1.95,0.049,2.702,0.14c0.75,0.087,1.422,0.271,2.018,0.545
		c0.723,0.303,1.373,0.743,1.923,1.308c0.563,0.57,0.99,1.238,1.278,1.992c0.291,0.752,0.438,1.549,0.433,2.392
		c0,1.726-0.49,3.111-1.469,4.143c-0.967,1.03-2.45,1.758-4.434,2.188c0.837,0.443,1.629,1.099,2.39,1.96
		c0.756,0.868,1.436,1.794,2.029,2.762c0.59,0.982,1.057,1.858,1.387,2.647c0.326,0.781,0.5,1.324,0.5,1.619
		c0,0.305-0.104,0.611-0.302,0.909c-0.192,0.3-0.455,0.536-0.794,0.705c-0.333,0.178-0.723,0.269-1.165,0.269
		c-0.534,0-0.978-0.129-1.335-0.376c-0.355-0.245-0.669-0.565-0.921-0.939c-0.262-0.379-0.61-0.938-1.054-1.678l-1.879-3.129
		c-0.667-1.151-1.27-2.028-1.812-2.628c-0.526-0.6-1.064-1.017-1.616-1.235C45.314,58.749,44.626,58.641,43.796,58.641z
		 M46.489,48.903l-4.328-0.006l-0.003,6.372l4.198,0.006c1.135,0,2.076-0.095,2.85-0.294c0.77-0.188,1.354-0.523,1.765-0.992
		c0.405-0.466,0.604-1.112,0.604-1.936c0.005-0.641-0.156-1.211-0.483-1.699c-0.328-0.494-0.782-0.863-1.369-1.103
		C49.181,49.016,48.102,48.903,46.489,48.903z"/>
	<path fill="#7F60A7" d="M65.31,45.393l6.12,0.003c1.585,0.002,2.958,0.153,4.095,0.443c1.133,0.295,2.167,0.85,3.093,1.669
		c2.408,2.062,3.617,5.203,3.617,9.419c0,1.393-0.121,2.665-0.364,3.813c-0.254,1.143-0.623,2.185-1.13,3.105
		c-0.503,0.915-1.155,1.738-1.944,2.472c-0.627,0.554-1.303,1-2.047,1.338c-0.738,0.34-1.527,0.574-2.378,0.705
		c-0.845,0.144-1.802,0.209-2.869,0.209h-6.116c-0.853,0-1.491-0.137-1.924-0.393c-0.436-0.258-0.713-0.615-0.846-1.091
		c-0.133-0.466-0.198-1.079-0.198-1.825l0.011-16.993c0-1.014,0.229-1.747,0.687-2.194C63.561,45.614,64.299,45.393,65.31,45.393z
		 M67.129,49.106l-0.01,15.732l3.551,0.002c0.785,0,1.396-0.025,1.838-0.059c0.438-0.047,0.901-0.148,1.375-0.317
		c0.474-0.171,0.889-0.408,1.231-0.712c1.571-1.325,2.355-3.608,2.36-6.861c0-2.284-0.341-3.997-1.031-5.136
		c-0.692-1.143-1.542-1.859-2.548-2.181c-1.01-0.304-2.237-0.469-3.668-0.469H67.129z"/>
	<path fill="#7F60A7" d="M105.584,61.639c0,1.407-0.355,2.665-1.086,3.779c-0.721,1.113-1.774,1.991-3.175,2.622
		c-1.385,0.631-3.034,0.947-4.938,0.947c-2.292,0-4.179-0.438-5.668-1.303c-1.048-0.617-1.908-1.449-2.561-2.49
		c-0.656-1.038-0.982-2.052-0.982-3.034c0-0.565,0.194-1.052,0.592-1.456c0.396-0.407,0.897-0.605,1.509-0.605
		c0.496,0,0.914,0.154,1.255,0.473c0.346,0.316,0.634,0.784,0.876,1.407c0.29,0.744,0.613,1.358,0.957,1.849
		c0.341,0.496,0.824,0.908,1.445,1.229c0.621,0.323,1.44,0.479,2.446,0.479c1.388,0.007,2.521-0.321,3.389-0.966
		c0.875-0.644,1.306-1.453,1.313-2.431c0-0.759-0.24-1.385-0.708-1.857c-0.469-0.484-1.072-0.852-1.81-1.107
		c-0.741-0.255-1.741-0.527-2.985-0.807c-1.66-0.396-3.055-0.854-4.181-1.375c-1.115-0.522-2.011-1.232-2.668-2.139
		c-0.655-0.901-0.982-2.016-0.982-3.36c0.006-1.272,0.347-2.407,1.044-3.396c0.703-0.995,1.7-1.751,3.026-2.281
		c1.314-0.53,2.858-0.794,4.646-0.794c1.42,0,2.649,0.184,3.691,0.538c1.039,0.351,1.895,0.816,2.581,1.409
		c0.687,0.586,1.181,1.202,1.502,1.847c0.315,0.636,0.476,1.262,0.476,1.878c0,0.558-0.203,1.059-0.601,1.504
		c-0.39,0.454-0.883,0.678-1.474,0.678c-0.535,0-0.947-0.133-1.222-0.405c-0.283-0.272-0.581-0.707-0.912-1.322
		c-0.419-0.872-0.926-1.559-1.509-2.047c-0.594-0.49-1.54-0.739-2.852-0.739c-1.213,0-2.191,0.266-2.933,0.803
		c-0.745,0.532-1.117,1.173-1.117,1.916c0,0.463,0.128,0.866,0.378,1.206c0.254,0.332,0.6,0.627,1.048,0.866
		c0.433,0.245,0.892,0.433,1.342,0.57c0.447,0.14,1.199,0.336,2.243,0.606c1.303,0.3,2.484,0.641,3.547,1.01
		c1.055,0.372,1.961,0.817,2.702,1.35c0.739,0.526,1.315,1.193,1.736,1.997C105.375,59.487,105.584,60.473,105.584,61.639z"/>
</g>
<text transform="matrix(0.9983 -0.0577 0.0577 0.9983 -35.395 9.5601)" fill="#333333" font-family="'Schoolbell'" font-size="49.8531">Dustin’s</text>
</svg>
